<svg width="37" height="32" viewBox="0 0 37 32" fill="none" xmlns="http://www.w3.org/2000/svg">
<path d="M35.6201 23.2291C36.299 22.7543 36.4644 21.8191 35.9897 21.1402L28.2528 10.0772C27.778 9.39833 26.8428 9.23287 26.1639 9.70765C25.485 10.1824 25.3195 11.1176 25.7943 11.7965L32.6716 21.6303L22.8378 28.5076C22.1589 28.9823 21.9934 29.9176 22.4682 30.5964C22.943 31.2753 23.8782 31.4408 24.5571 30.966L35.6201 23.2291ZM0.5565 1.40608C3.00815 10.124 11.808 15.6111 19.4798 18.8799C23.3787 20.5412 27.1245 21.6877 29.8912 22.4189C31.2764 22.7849 32.4208 23.0481 33.2222 23.2203C33.6229 23.3064 33.9382 23.3699 34.1552 23.4122C34.2637 23.4333 34.3477 23.4491 34.4055 23.4599C34.4345 23.4652 34.4569 23.4693 34.4725 23.4722C34.4804 23.4736 34.4865 23.4747 34.4909 23.4755C34.4932 23.4759 34.495 23.4762 34.4963 23.4764C34.497 23.4766 34.4977 23.4767 34.498 23.4768C34.4986 23.4769 34.4991 23.4769 34.7604 21.9999C35.0218 20.5228 35.022 20.5229 35.0222 20.5229C35.0221 20.5229 35.0222 20.5229 35.022 20.5229C35.0216 20.5228 35.0209 20.5227 35.0197 20.5224C35.0172 20.522 35.0131 20.5213 35.0074 20.5202C34.9958 20.5181 34.9776 20.5148 34.9529 20.5102C34.9036 20.5011 34.8283 20.4869 34.7287 20.4675C34.5296 20.4287 34.2333 20.3691 33.8525 20.2873C33.0908 20.1236 31.9922 19.8711 30.6577 19.5184C27.985 18.8121 24.3844 17.7087 20.6558 16.12C13.0725 12.8889 5.49234 7.87601 3.44448 0.593922L0.5565 1.40608Z" fill="black"/>
</svg>
